<svg xmlns="http://www.w3.org/2000/svg" version="1.1" xmlns:xlink="http://www.w3.org/1999/xlink" xmlns:svgjs="http://svgjs.dev/svgjs" viewBox="0 0 1920 1080">
  <rect width="1920" height="1080" fill="#6bbb16"></rect>
  <g transform="matrix(0.5750000000000001,0.9959292143521044,-0.9959292143521044,0.5750000000000001,929.9462816323995,-689.4368697783918)">
    <path d="M0,-1080C-9.583880832595357,-992.7238814800319,-49.61876195328119,-725.1029161930378,-57.503284995572145,-556.3432888801913C-65.3878080378631,-387.58366156734473,-45.00045923210191,-247.96670914710234,-47.30713825374574,-67.44223612292097C-49.61381727538957,113.08223690126039,-85.42610147404741,323.0922423629843,-71.34335912543514,526.8035492648969C-57.26061677682288,730.5148561668095,17.38824340082179,963.9628260375418,37.189315837927865,1154.825605288555C56.990388275033936,1345.688384539568,53.66129480352263,1504.4511589857345,47.46307549720132,1671.9802247709754C41.26485619088,1839.5092905562162,7.910512582866886,2078.6633707951623,0,2160L 1920 2160 L 1920 -1080 Z" fill="url(&quot;#SvgjsLinearGradient1430&quot;)"></path>
    <path d="M640,-1080C641.5920399476809,-1024.6776687267402,662.6508087085261,-875.1964345834401,649.5522396860849,-748.0660123604408C636.4536706636437,-620.9355901374415,572.7380135090363,-464.4299896164596,561.4085858653525,-317.2174666620044C550.0791582216688,-170.00494370754924,583.5668025081262,-17.699184486919705,581.5756738239826,135.20912536629027C579.584545139839,288.11743521950024,530.470277781666,454.8418968681507,549.4618137604907,600.2323924572554C568.4533497393154,745.6228880463601,678.991529109699,884.7903122384006,695.5248896969305,1007.5520989009184C712.058250284162,1130.313885563436,652.8642056035752,1220.3399652180206,648.6619772838798,1336.8031124323622C644.4597489641843,1453.266259646704,671.7551826594047,1569.131500925696,670.311519778758,1706.3309821869689C668.8678568981113,1843.5304634482418,645.0519199631264,2084.3884970311615,640,2160L 1920 2160 L 1920 -1080 Z" fill="url(&quot;#SvgjsLinearGradient1431&quot;)"></path>
    <path d="M1280,-1080C1298.1243438129334,-959.6832444779028,1399.6899806808028,-556.777933778852,1388.7460628776003,-358.09946686741705C1377.8021450743977,-159.42099995598207,1220.9646774283176,-79.27079901490762,1214.3364931807841,112.07080146860997C1207.7083089332507,303.41240195212754,1346.335301325756,561.2479001002677,1348.976957392399,789.9501360336885C1351.618613459042,1018.6523719671094,1241.6825891460428,1255.94257307475,1230.1864295806429,1484.2842170691354C1218.690270015243,1712.6258610635207,1271.6977382634404,2047.380702844856,1280,2160L 1920 2160 L 1920 -1080 Z" fill="url(&quot;#SvgjsLinearGradient1432&quot;)"></path>
  </g>
  <defs>
    <linearGradient x1="0.1" y1="0" x2="0" y2="1" id="SvgjsLinearGradient1430">
      <stop stop-color="#6bbb16" offset="0"></stop>
      <stop stop-color="#86bb16" offset="0"></stop>
    </linearGradient>
    <linearGradient x1="0.1" y1="0" x2="0" y2="1" id="SvgjsLinearGradient1431">
      <stop stop-color="#90e734" offset="0"></stop>
      <stop stop-color="#aee734" offset="0.3333333333333333"></stop>
    </linearGradient>
    <linearGradient x1="0.1" y1="0" x2="0" y2="1" id="SvgjsLinearGradient1432">
      <stop stop-color="#b4ef76" offset="0"></stop>
      <stop stop-color="#c8ef76" offset="0.6666666666666666"></stop>
    </linearGradient>
  </defs>
</svg>