<svg xmlns="http://www.w3.org/2000/svg" version="1.1" xmlns:xlink="http://www.w3.org/1999/xlink" xmlns:svgjs="http://svgjs.dev/svgjs" viewBox="0 0 1920 1080">
  <rect width="1920" height="1080" fill="#fa6400"></rect>
  <g transform="matrix(0.5750000000000001,0.9959292143521044,-0.9959292143521044,0.5750000000000001,928.3708128061055,-685.7449746480222)">
    <path d="M0,-1080C-13.294189534908364,-986.9643540158653,-70.8905103658129,-692.737149969616,-79.76513720945019,-521.786124095192C-88.63976405308748,-350.83509822076803,-69.65558100539374,-215.08023087371942,-53.24776106182374,-54.29384475345613C-36.83994111825373,106.49254136680717,4.009382957271116,245.3472808325466,18.681782451969852,442.93219262638775C33.35418194666859,640.5171044202289,32.010949495579865,937.3383010543699,34.78663590636867,1131.2156260095908C37.56232231715748,1325.0929509648115,41.13367356776413,1434.7320800259777,35.335900916702684,1606.1961423577125C29.538128265641237,1777.6602046894473,5.889316819450447,2067.6993570596187,0,2160L 1920 2160 L 1920 -1080 Z" fill="url(&quot;#SvgjsLinearGradient1205&quot;)"></path>
    <path d="M480,-1080C491.67124409075814,-957.2509954208248,565.8680001947507,-614.9860210029055,550.0274645445488,-343.5059725249489C534.1869288943469,-72.02592404699232,385.85609566685446,261.9458223867717,384.9567860987885,548.8802908677394C384.0574765307225,835.8147593487072,528.7910714859512,1109.5808868388142,544.6316071361531,1378.1008383608576C560.472142786355,1646.620789882901,490.77193452269216,2029.683473060143,480,2160L 1920 2160 L 1920 -1080 Z" fill="url(&quot;#SvgjsLinearGradient1206&quot;)"></path>
    <path d="M960,-1080C953.7924719899037,-986.5726372707006,909.5211873832471,-725.8946205508848,922.7548319394218,-519.4358236242036C935.9884764955965,-312.97702669752243,1023.5282269861892,-59.30485931597383,1039.4018673370483,158.7527815600874C1055.2755076879075,376.81042243614866,1039.3094392078199,567.2728304046252,1017.9966740445765,788.9100216321639C996.6839088813332,1010.5472128597025,921.1913886983513,1260.0609325306798,911.5252763575885,1488.5759289253192C901.8591640168257,1717.0909253199586,951.9208793929314,2048.09598815422,960,2160L 1920 2160 L 1920 -1080 Z" fill="url(&quot;#SvgjsLinearGradient1207&quot;)"></path>
    <path d="M1440,-1080C1438.795300265481,-980.5721968465505,1443.7987675294548,-673.7857683723673,1432.7718015928858,-483.4331810793026C1421.7448356563168,-293.08059378623784,1371.1527529406803,-99.55152966194069,1373.8382043805855,62.11552375838863C1376.5236558204906,223.78257717871796,1449.7417832702135,302.1759228639503,1448.884510232317,486.5691394426734C1448.0272371944206,670.9623560213965,1377.0487589605955,967.9035131806912,1368.6945661532072,1168.4748232307272C1360.340373345819,1369.0461332807631,1386.8751144135217,1524.742803614677,1398.7593533879872,1689.9969997428893C1410.6435923624526,1855.2511958711016,1433.126558897998,2081.666166623815,1440,2160L 1920 2160 L 1920 -1080 Z" fill="url(&quot;#SvgjsLinearGradient1208&quot;)"></path>
  </g>
  <defs>
    <linearGradient x1="0.1" y1="0" x2="0" y2="1" id="SvgjsLinearGradient1205">
      <stop stop-color="#fa6400" offset="0"></stop>
      <stop stop-color="#fa3a00" offset="0"></stop>
    </linearGradient>
    <linearGradient x1="0.1" y1="0" x2="0" y2="1" id="SvgjsLinearGradient1206">
      <stop stop-color="#ff8738" offset="0"></stop>
      <stop stop-color="#ff6638" offset="0.25"></stop>
    </linearGradient>
    <linearGradient x1="0.1" y1="0" x2="0" y2="1" id="SvgjsLinearGradient1207">
      <stop stop-color="#ffac75" offset="0"></stop>
      <stop stop-color="#ff9575" offset="0.5"></stop>
    </linearGradient>
    <linearGradient x1="0.1" y1="0" x2="0" y2="1" id="SvgjsLinearGradient1208">
      <stop stop-color="#ffd0b1" offset="0"></stop>
      <stop stop-color="#ffc3b1" offset="0.75"></stop>
    </linearGradient>
  </defs>
</svg>