<svg xmlns="http://www.w3.org/2000/svg" version="1.1" xmlns:xlink="http://www.w3.org/1999/xlink" xmlns:svgjs="http://svgjs.dev/svgjs" viewBox="0 0 1920 1080">
  <rect width="1920" height="1080" fill="#e02020"></rect>
  <g transform="matrix(0.5750000000000001,0.9959292143521044,-0.9959292143521044,0.5750000000000001,922.8293247308492,-672.7592573183006)">
    <path d="M0,-1080C-5.142915475125984,-1003.9671975332164,-19.967045699675275,-760.9238223416785,-30.857492850755904,-623.8031851992988C-41.74794000183653,-486.68254805691913,-57.500231645678916,-394.4224689446281,-65.34268290648379,-257.27617714572193C-73.18513416728865,-120.12988534681571,-87.3892686494751,50.242608352770844,-77.91220041558512,199.0745655941386C-68.43513218169514,347.90652283550634,-36.8621616513184,517.0110779218428,-8.48027350314392,635.7155663024846C19.90161464503056,754.4200546831264,106.10533912115156,801.8560110045345,92.37912847346175,911.3014958779897C78.65291782577194,1020.746980751445,-60.420779337259916,1158.1804846499892,-90.83753738928282,1292.388475543216C-121.25429544130571,1426.5964664364426,-105.26100940355616,1571.947520494552,-90.12141983867569,1716.5494412373494C-74.98183027379523,1861.1513619801467,-15.020236639779283,2086.0915735395583,0,2160L 1920 2160 L 1920 -1080 Z" fill="url(&quot;#SvgjsLinearGradient1173&quot;)"></path>
    <path d="M480,-1080C485.9887770004933,-1011.951901114966,510.41112029196984,-837.9981178215231,515.9326620029598,-671.711406689796C521.4542037139497,-505.42469555806895,504.3001203888553,-230.47394229681495,513.1292502659396,-82.27973320963767C521.958380143024,65.91447587753962,584.607294323094,69.23218254313122,568.9074412654656,217.45384783326764C553.2075882078373,365.6755131234041,441.2231266816922,640.7040309092014,418.9301319201692,807.0502585311809C396.63713715864617,973.3964861531605,440.44865977127677,1061.5619143478987,435.14947269632773,1215.5312135651448C429.8502856213787,1369.5005127823908,379.6599215865298,1573.4545894288476,387.13500947047515,1730.866053834657C394.61009735442053,1888.2775182404662,464.5225015784125,2088.4776756391093,480,2160L 1920 2160 L 1920 -1080 Z" fill="url(&quot;#SvgjsLinearGradient1174&quot;)"></path>
    <path d="M960,-1080C959.165291015654,-974.7459392595943,953.4134784592313,-637.2208779079593,954.9917460939242,-448.4756355575653C956.5700137286171,-259.73039320717123,975.4651498725077,-107.87494896032089,969.4696058081571,52.47145410236433C963.4740617438065,212.81785716504956,914.9873930093856,344.3185208230243,919.0184817078202,513.6027828185461C923.0495704062548,682.8870448140678,975.4901127163263,878.6242020988876,993.656137998765,1068.177026075495C1011.8221632812036,1257.7298500521022,1033.62398973558,1468.9492310241058,1028.0146334024525,1650.9197266781898C1022.405277069325,1832.8902223322739,971.3357722337421,2075.153287779698,960,2160L 1920 2160 L 1920 -1080 Z" fill="url(&quot;#SvgjsLinearGradient1175&quot;)"></path>
    <path d="M1440,-1080C1433.8554485292084,-1002.5610889177508,1410.9884663189312,-798.6018245515727,1403.13269117525,-615.366533506505C1395.276916031569,-432.1312424614373,1386.5992975662944,-184.62966904554176,1392.8653491379134,19.411746270406155C1399.1314007095325,223.45316158635407,1432.4379314075852,421.41228900332726,1440.7290006049645,608.8819583891824C1449.0200698023439,796.3516277750375,1439.151801294643,963.0605980278723,1442.6117643221892,1144.2297625855367C1446.0717273497353,1325.398927143201,1461.924072823939,1526.6019061660913,1461.4887787702407,1695.8969457351686C1461.0534847165425,1865.191985304246,1443.5814631283733,2082.6494909558614,1440,2160L 1920 2160 L 1920 -1080 Z" fill="url(&quot;#SvgjsLinearGradient1176&quot;)"></path>
  </g>
  <defs>
    <linearGradient x1="0.1" y1="0" x2="0" y2="1" id="SvgjsLinearGradient1173">
      <stop stop-color="#e02020" offset="0"></stop>
      <stop stop-color="#e02040" offset="0"></stop>
    </linearGradient>
    <linearGradient x1="0.1" y1="0" x2="0" y2="1" id="SvgjsLinearGradient1174">
      <stop stop-color="#ba1a1a" offset="0"></stop>
      <stop stop-color="#ba1a35" offset="0.25"></stop>
    </linearGradient>
    <linearGradient x1="0.1" y1="0" x2="0" y2="1" id="SvgjsLinearGradient1175">
      <stop stop-color="#921414" offset="0"></stop>
      <stop stop-color="#921429" offset="0.5"></stop>
    </linearGradient>
    <linearGradient x1="0.1" y1="0" x2="0" y2="1" id="SvgjsLinearGradient1176">
      <stop stop-color="#6b0f0f" offset="0"></stop>
      <stop stop-color="#6b0f1e" offset="0.75"></stop>
    </linearGradient>
  </defs>
</svg>