<svg xmlns="http://www.w3.org/2000/svg" version="1.1" xmlns:xlink="http://www.w3.org/1999/xlink" xmlns:svgjs="http://svgjs.dev/svgjs" viewBox="0 0 1920 1080">
  <rect width="1920" height="1080" fill="#f7b500"></rect>
  <g transform="matrix(0.5750000000000001,0.9959292143521044,-0.9959292143521044,0.5750000000000001,926.7375562753438,-681.9176619573941)">
    <path d="M0,-1080C6.998204754944315,-1014.598948425208,29.637063667156312,-851.0294009937069,41.989228529665894,-687.5936905512482C54.341393392175476,-524.1579801087895,72.32736334747132,-270.13493896823866,74.11298917505749,-99.38573734524809C75.89861500264367,71.36346427774245,78.06132602921592,204.2855506038284,52.702983495182934,336.901519186695C27.344640961149945,469.5174877695616,-57.73330963956904,541.1451587242796,-78.03706602914045,696.3100741519515C-98.34082241871185,851.4749895796235,-90.10794830194105,1097.339333770603,-69.11955484224549,1267.8910117527269C-48.131161382549934,1438.4426897348508,36.37336892199199,1570.9353106701496,47.8932947290329,1719.620142044695C59.413220536073815,1868.3049734192405,7.982215788172151,2086.603357007449,0,2160L 1920 2160 L 1920 -1080 Z" fill="url(&quot;#SvgjsLinearGradient1209&quot;)"></path>
    <path d="M480,-1080C491.0287021198622,-997.9637812807916,548.1925058333218,-730.8264614325235,546.1722127191732,-587.7826876847497C544.1519196050247,-444.7389139369759,474.35326570233167,-368.688594928921,467.87824131510877,-221.73735751335727C461.40321692788586,-74.78612009779349,519.8638728675763,135.22814879631662,507.3220663958359,293.92473680863304C494.7802599240955,452.62132482094944,411.2540670351385,581.599026989104,392.6274024846661,730.4421705605413C374.0007379341937,879.2853141319786,389.96865539271107,1038.0295185695936,395.56207909300133,1186.983598237257C401.1555027932916,1335.9376779049203,412.1149578685746,1461.9972482727308,426.1879446864077,1624.1666485665212C440.26093150424083,1786.3360488603116,471.0313241144013,2070.6944414277536,480,2160L 1920 2160 L 1920 -1080 Z" fill="url(&quot;#SvgjsLinearGradient1210&quot;)"></path>
    <path d="M960,-1080C970.268743766787,-995.041431069323,1016.6910660632805,-736.8484099800035,1021.612462600722,-570.2485864159383C1026.5338591381635,-403.6487628518733,997.2084112003199,-257.01468378598395,989.5283792246494,-80.40105861560971C981.8483472489788,96.21256655476449,968.3071153123834,311.3613767272062,975.5322707466985,489.4331646063068C982.7574261810136,667.5049524854073,1021.8944006748014,812.5348677977018,1032.8793118305398,988.0296686589937C1043.864222986278,1163.5244695202855,1053.5882896528854,1347.0735812172236,1041.4417376811286,1542.401969774058C1029.295185709372,1737.7303583308924,973.5736229468548,2057.066994962343,960,2160L 1920 2160 L 1920 -1080 Z" fill="url(&quot;#SvgjsLinearGradient1211&quot;)"></path>
    <path d="M1440,-1080C1428.4867925951621,-978.4953556460875,1384.394267859957,-640.7797871639767,1370.9207555709727,-470.97213387652556C1357.4472432819884,-301.1644805890744,1359.420251248843,-217.6687676301799,1359.158926266095,-61.15408027529278C1358.897601283347,95.36060707959433,1359.721302322531,284.80105222415165,1369.3528056744847,468.1159902527972C1378.9843090264383,651.4309282814427,1412.8451831275506,837.0945081484657,1416.9479463778168,1038.7355478965806C1421.050709628083,1240.3765876446955,1390.1273762390506,1491.084820057583,1393.9693851760812,1677.9622287414863C1397.8113941131119,1864.8396374253896,1432.3282308626801,2079.6603714569146,1440,2160L 1920 2160 L 1920 -1080 Z" fill="url(&quot;#SvgjsLinearGradient1212&quot;)"></path>
  </g>
  <defs>
    <linearGradient x1="0.1" y1="0" x2="0" y2="1" id="SvgjsLinearGradient1209">
      <stop stop-color="#f7b500" offset="0"></stop>
      <stop stop-color="#f78c00" offset="0"></stop>
    </linearGradient>
    <linearGradient x1="0.1" y1="0" x2="0" y2="1" id="SvgjsLinearGradient1210">
      <stop stop-color="#ffc31d" offset="0"></stop>
      <stop stop-color="#ff9d1d" offset="0.25"></stop>
    </linearGradient>
    <linearGradient x1="0.1" y1="0" x2="0" y2="1" id="SvgjsLinearGradient1211">
      <stop stop-color="#ffcd43" offset="0"></stop>
      <stop stop-color="#ffae43" offset="0.5"></stop>
    </linearGradient>
    <linearGradient x1="0.1" y1="0" x2="0" y2="1" id="SvgjsLinearGradient1212">
      <stop stop-color="#ffd768" offset="0"></stop>
      <stop stop-color="#ffbe68" offset="0.75"></stop>
    </linearGradient>
  </defs>
</svg>